<svg xmlns="http://www.w3.org/2000/svg" viewBox="0 0 32 32" fill="none">
  <rect width="32" height="32" rx="6" fill="url(#gradient)"/>
  <circle cx="16" cy="16" r="4" stroke="white" stroke-width="2"/>
  <circle cx="16" cy="6" r="2" fill="white"/>
  <circle cx="16" cy="26" r="2" fill="white"/>
  <circle cx="6" cy="16" r="2" fill="white"/>
  <circle cx="26" cy="16" r="2" fill="white"/>
  <circle cx="9" cy="9" r="2" fill="white"/>
  <circle cx="23" cy="9" r="2" fill="white"/>
  <circle cx="9" cy="23" r="2" fill="white"/>
  <circle cx="23" cy="23" r="2" fill="white"/>
  <line x1="16" y1="12" x2="16" y2="8" stroke="white" stroke-width="1.5"/>
  <line x1="16" y1="20" x2="16" y2="24" stroke="white" stroke-width="1.5"/>
  <line x1="12" y1="16" x2="8" y2="16" stroke="white" stroke-width="1.5"/>
  <line x1="20" y1="16" x2="24" y2="16" stroke="white" stroke-width="1.5"/>
  <line x1="13.2" y1="13.2" x2="10.4" y2="10.4" stroke="white" stroke-width="1.5"/>
  <line x1="18.8" y1="13.2" x2="21.6" y2="10.4" stroke="white" stroke-width="1.5"/>
  <line x1="13.2" y1="18.8" x2="10.4" y2="21.6" stroke="white" stroke-width="1.5"/>
  <line x1="18.8" y1="18.8" x2="21.6" y2="21.6" stroke="white" stroke-width="1.5"/>
  <defs>
    <linearGradient id="gradient" x1="0" y1="0" x2="32" y2="32">
      <stop offset="0%" stop-color="#0d7377"/>
      <stop offset="100%" stop-color="#14919b"/>
    </linearGradient>
  </defs>
</svg>
